<?xml version="1.0" encoding="UTF-8"?>
<svg version="1.1" xmlns="http://www.w3.org/2000/svg" width="192" height="192">
<path d="M0 0 C2.23232266 -0.00963662 4.46369721 -0.0406116 6.69580078 -0.07226562 C8.12678491 -0.07880264 9.55777562 -0.08405036 10.98876953 -0.08789062 C12.28637207 -0.09723633 13.58397461 -0.10658203 14.92089844 -0.11621094 C19.18202613 0.29249005 21.80971322 1.38839323 25.63720703 3.24023438 C26.33845703 3.48773438 27.03970703 3.73523438 27.76220703 3.99023438 C31.27922601 6.33491369 33.9580574 10.15638394 35.26611328 14.16992188 C36.51626713 21.14446438 36.13235204 27.98796302 32.63720703 34.24023438 C29.65083226 37.85531963 27.11427162 39.83315693 22.63720703 41.24023438 C22.96720703 41.90023437 23.29720703 42.56023438 23.63720703 43.24023438 C26.50276055 42.11137996 29.32385751 40.93369398 32.13720703 39.67773438 C40.33620969 36.31028685 49.29060458 36.12821243 57.63720703 39.24023438 C67.95318211 44.1468242 75.09685632 50.51426449 79.51220703 61.24023438 C82.23927889 70.53187443 82.1422156 82.35666777 77.89501953 91.10351562 C73.54844677 98.48728984 68.42422897 104.34672341 60.63720703 108.24023438 C62.38686062 108.29453397 64.1370049 108.33316261 65.88720703 108.36523438 C66.86173828 108.3884375 67.83626953 108.41164063 68.84033203 108.43554688 C71.69890425 108.23592591 73.1625885 107.58329657 75.63720703 106.24023438 C76.62720703 106.24023438 77.61720703 106.24023438 78.63720703 106.24023438 C82.58128245 114.00989369 82.58128245 114.00989369 82.76220703 117.99023438 C80.7138598 122.08692883 77.22980563 124.33632706 73.32470703 126.55273438 C64.96939233 128.69014046 58.87603653 126.5393604 51.06689453 123.43164062 C45.17889625 121.38626537 40.68058407 120.83178467 34.69970703 122.67773438 C33.26304688 123.10892578 33.26304688 123.10892578 31.79736328 123.54882812 C31.08451172 123.77699219 30.37166016 124.00515625 29.63720703 124.24023438 C26.63720703 120.54492188 26.63720703 120.54492188 26.63720703 117.80273438 C27.94602675 114.44888384 29.98419189 112.62114539 32.63720703 110.24023438 C31.91275391 109.81613281 31.18830078 109.39203125 30.44189453 108.95507812 C19.978301 102.60716472 14.25823333 96.10331327 10.38720703 84.49023438 C8.80152221 77.20465548 8.71295208 70.06670952 11.63720703 63.17773438 C12.62067348 60.80202128 12.62067348 60.80202128 12.63720703 58.24023438 C10.49777665 54.09343722 7.75599119 50.69387747 4.63720703 47.24023438 C4.64506226 48.11760254 4.64506226 48.11760254 4.65307617 49.01269531 C4.67390861 51.671864 4.68688711 54.33101549 4.69970703 56.99023438 C4.70808594 57.910625 4.71646484 58.83101562 4.72509766 59.77929688 C4.72993164 61.11347656 4.72993164 61.11347656 4.73486328 62.47460938 C4.74271851 63.70002441 4.74271851 63.70002441 4.75073242 64.95019531 C4.64019724 67.17991572 4.2577627 69.10157193 3.63720703 71.24023438 C0.82464422 71.2670775 -1.98766538 71.28699625 -4.80029297 71.30273438 C-5.60273437 71.31111328 -6.40517578 71.31949219 -7.23193359 71.328125 C-9.27574518 71.33674868 -11.31963199 71.29251587 -13.36279297 71.24023438 C-15.22177359 69.38125375 -14.49056962 66.2906324 -14.4921875 63.80859375 C-14.49393982 63.13705765 -14.49569214 62.46552155 -14.49749756 61.77363586 C-14.50191527 59.5437261 -14.49897839 57.31389501 -14.49560547 55.08398438 C-14.49627853 53.54081202 -14.49724858 51.99763977 -14.49850464 50.45446777 C-14.4999815 47.21621697 -14.49782743 43.9779937 -14.49316406 40.73974609 C-14.48746677 36.57980915 -14.49074584 32.41993671 -14.49673653 28.26000214 C-14.50034246 25.0722403 -14.49920341 21.88449386 -14.49660873 18.69673157 C-14.49593955 17.16246025 -14.49676758 15.62818755 -14.49908829 14.09391785 C-14.50161534 11.95319897 -14.49777351 9.81258595 -14.4921875 7.671875 C-14.49139191 6.45133423 -14.49059631 5.23079346 -14.48977661 3.9732666 C-14.18987114 -2.4815122 -5.06767997 0.01324595 0 0 Z M3.63720703 14.24023438 C3.63720703 19.19023437 3.63720703 24.14023437 3.63720703 29.24023438 C8.39742544 31.76873257 8.39742544 31.76873257 12.38720703 29.99023438 C15.690213 28.61380027 15.690213 28.61380027 16.63720703 26.24023438 C17.02465505 21.46399969 17.02465505 21.46399969 15.44580078 17.06054688 C13.10845093 14.70805221 11.71841116 14.66003719 8.44970703 14.49023438 C6.06751953 14.36648437 6.06751953 14.36648437 3.63720703 14.24023438 Z M32.32470703 60.55273438 C28.29419218 66.97170248 27.68190591 73.30317397 29.10205078 80.64257812 C30.68882316 86.28547872 32.76806873 88.99414217 37.63720703 92.24023438 C42.97440228 94.01929946 47.95090019 93.63370597 53.38720703 92.36523438 C58.1542187 89.24834213 59.9887023 85.63069895 61.63720703 80.24023438 C62.71456282 72.87830313 62.16228066 66.31759863 57.63720703 60.24023438 C53.56652103 56.27131553 50.84315714 55.40672118 45.32470703 54.99023438 C39.94683753 55.3548357 36.16506145 56.71237996 32.32470703 60.55273438 Z " fill="#5571F0" transform="translate(67.36279296875,5.759765625)"/>
<path d="M0 0 C2.23232266 -0.00963662 4.46369721 -0.0406116 6.69580078 -0.07226562 C8.12678491 -0.07880264 9.55777562 -0.08405036 10.98876953 -0.08789062 C12.28637207 -0.09723633 13.58397461 -0.10658203 14.92089844 -0.11621094 C19.18202613 0.29249005 21.80971322 1.38839323 25.63720703 3.24023438 C26.33845703 3.48773438 27.03970703 3.73523438 27.76220703 3.99023438 C31.27922601 6.33491369 33.9580574 10.15638394 35.26611328 14.16992188 C36.51626713 21.14446438 36.13235204 27.98796302 32.63720703 34.24023438 C29.65083226 37.85531963 27.11427162 39.83315693 22.63720703 41.24023438 C23.29720703 42.56023438 23.95720703 43.88023438 24.63720703 45.24023438 C23.75033203 45.92085937 22.86345703 46.60148437 21.94970703 47.30273438 C19.47738494 49.33670149 17.68776105 51.40833862 15.88720703 54.05273438 C15.14470703 55.10460938 14.40220703 56.15648437 13.63720703 57.24023438 C12.97720703 57.24023438 12.31720703 57.24023438 11.63720703 57.24023438 C9.91064453 55.05273438 9.91064453 55.05273438 8.01220703 52.24023438 C7.06474609 50.84804687 7.06474609 50.84804687 6.09814453 49.42773438 C5.61603516 48.70585938 5.13392578 47.98398437 4.63720703 47.24023438 C4.64506226 48.11760254 4.64506226 48.11760254 4.65307617 49.01269531 C4.67390861 51.671864 4.68688711 54.33101549 4.69970703 56.99023438 C4.70808594 57.910625 4.71646484 58.83101562 4.72509766 59.77929688 C4.72993164 61.11347656 4.72993164 61.11347656 4.73486328 62.47460938 C4.74271851 63.70002441 4.74271851 63.70002441 4.75073242 64.95019531 C4.64019724 67.17991572 4.2577627 69.10157193 3.63720703 71.24023438 C0.82464422 71.2670775 -1.98766538 71.28699625 -4.80029297 71.30273438 C-5.60273437 71.31111328 -6.40517578 71.31949219 -7.23193359 71.328125 C-9.27574518 71.33674868 -11.31963199 71.29251587 -13.36279297 71.24023438 C-15.22177359 69.38125375 -14.49056962 66.2906324 -14.4921875 63.80859375 C-14.49393982 63.13705765 -14.49569214 62.46552155 -14.49749756 61.77363586 C-14.50191527 59.5437261 -14.49897839 57.31389501 -14.49560547 55.08398438 C-14.49627853 53.54081202 -14.49724858 51.99763977 -14.49850464 50.45446777 C-14.4999815 47.21621697 -14.49782743 43.9779937 -14.49316406 40.73974609 C-14.48746677 36.57980915 -14.49074584 32.41993671 -14.49673653 28.26000214 C-14.50034246 25.0722403 -14.49920341 21.88449386 -14.49660873 18.69673157 C-14.49593955 17.16246025 -14.49676758 15.62818755 -14.49908829 14.09391785 C-14.50161534 11.95319897 -14.49777351 9.81258595 -14.4921875 7.671875 C-14.49139191 6.45133423 -14.49059631 5.23079346 -14.48977661 3.9732666 C-14.18987114 -2.4815122 -5.06767997 0.01324595 0 0 Z M3.63720703 14.24023438 C3.63720703 19.19023437 3.63720703 24.14023437 3.63720703 29.24023438 C8.39742544 31.76873257 8.39742544 31.76873257 12.38720703 29.99023438 C15.690213 28.61380027 15.690213 28.61380027 16.63720703 26.24023438 C17.02465505 21.46399969 17.02465505 21.46399969 15.44580078 17.06054688 C13.10845093 14.70805221 11.71841116 14.66003719 8.44970703 14.49023438 C6.06751953 14.36648437 6.06751953 14.36648437 3.63720703 14.24023438 Z " fill="#FAFAFA" transform="translate(67.36279296875,5.759765625)"/>
<path d="M0 0 C3.66666667 0 7.33333333 0 11 0 C12.134375 -0.04125 13.26875 -0.0825 14.4375 -0.125 C17.72982119 -0.00947996 19.28772102 0.26414146 22 2 C22.99 1.34 23.98 0.68 25 0 C32.09170306 -0.67540029 32.09170306 -0.67540029 35.4375 1.8125 C37.67426796 4.94397514 38.12703896 7.44828401 38.1328125 11.1953125 C38.13474609 12.39220703 38.13474609 12.39220703 38.13671875 13.61328125 C38.13285156 14.44214844 38.12898438 15.27101562 38.125 16.125 C38.13080078 17.37990234 38.13080078 17.37990234 38.13671875 18.66015625 C38.12664874 24.87335126 38.12664874 24.87335126 37 26 C34.36 26 31.72 26 29 26 C28.67 20.06 28.34 14.12 28 8 C26.68 8 25.36 8 24 8 C23.67 13.94 23.34 19.88 23 26 C20.36 26 17.72 26 15 26 C14.67 20.06 14.34 14.12 14 8 C12.68 8 11.36 8 10 8 C9.67 13.94 9.34 19.88 9 26 C6.03 26 3.06 26 0 26 C0 17.42 0 8.84 0 0 Z " fill="#FAFAFA" transform="translate(88,164)"/>
<path d="M0 0 C3.97108389 3.40378619 6.28297529 7.14374277 6.86328125 12.4140625 C7.05982128 18.93091628 5.71827741 23.53296049 2.625 29.25 C3.12 29.70375 3.615 30.1575 4.125 30.625 C5.625 32.25 5.625 32.25 5.625 34.25 C-0.52734375 34.34765625 -0.52734375 34.34765625 -2.375 34.25 C-2.87 33.755 -2.87 33.755 -3.375 33.25 C-5.08134264 33.11715325 -6.79043626 33.01901871 -8.5 32.9375 C-13.9610011 32.45585529 -17.06308339 31.68193363 -21.375 28.25 C-25.26070221 23.34661387 -26.08064287 18.07922605 -25.81640625 11.93359375 C-24.9584575 6.71756908 -22.72142371 3.09653344 -18.578125 -0.1640625 C-12.2277492 -3.89808347 -6.39788144 -3.31742 0 0 Z M-14.6875 6.75 C-16.99646142 10.17068359 -17.44835435 13.1584573 -17.375 17.25 C-16.38439765 21.30246417 -14.87510606 23.03326616 -11.375 25.25 C-10.715 24.92 -10.055 24.59 -9.375 24.25 C-10.365 22.6 -11.355 20.95 -12.375 19.25 C-8.90558454 19.70822468 -5.70104951 20.14131683 -2.375 21.25 C-1.28982115 15.36650019 -0.86127132 11.45552396 -4.375 6.25 C-8.05248282 4.41125859 -11.24671274 4.518138 -14.6875 6.75 Z " fill="#5773EB" transform="translate(154.375,157.75)"/>
<path d="M0 0 C2.866875 -0.061875 5.73375 -0.12375 8.6875 -0.1875 C10.02880981 -0.22846802 10.02880981 -0.22846802 11.3972168 -0.27026367 C17.18781723 -0.33065684 20.48510021 0.65854158 24.8125 4.6875 C26.5535319 8.07793054 26.55541171 11.30943534 26 15 C24.625 18 24.625 18 23 20 C22.34 20 21.68 20 21 20 C21.433125 20.84304687 21.86625 21.68609375 22.3125 22.5546875 C22.869375 23.65039062 23.42625 24.74609375 24 25.875 C24.556875 26.96554688 25.11375 28.05609375 25.6875 29.1796875 C27 32 27 32 27 34 C24.03 34 21.06 34 18 34 C17.61328125 33.21753906 17.2265625 32.43507812 16.828125 31.62890625 C16.30734375 30.61699219 15.7865625 29.60507813 15.25 28.5625 C14.73953125 27.55316406 14.2290625 26.54382813 13.703125 25.50390625 C12.10315255 22.55420755 12.10315255 22.55420755 8 22 C8 25.96 8 29.92 8 34 C5.36 34 2.72 34 0 34 C0 22.78 0 11.56 0 0 Z M8 7 C8 9.64 8 12.28 8 15 C12.00254456 15.09181134 12.00254456 15.09181134 16 15 C17.34404775 13.88163776 17.34404775 13.88163776 17.125 11 C17.34404775 8.11836224 17.34404775 8.11836224 16 7 C13.32941149 6.85884839 10.67567762 6.95752893 8 7 Z " fill="#FDFDFD" transform="translate(4,156)"/>
<path d="M0 0 C2.64 0 5.28 0 8 0 C8.33 5.94 8.66 11.88 9 18 C10.98 18 12.96 18 15 18 C15 12.06 15 6.12 15 0 C17.97 0 20.94 0 24 0 C24 8.58 24 17.16 24 26 C21.36 26 18.72 26 16 26 C15.67 25.34 15.34 24.68 15 24 C14.01 24.66 13.02 25.32 12 26 C7.8503256 26.53792076 5.78422435 26.53639588 2.29296875 24.1484375 C-1.04185402 19.56944746 -0.55292837 15.69515915 -0.3125 10.1875 C-0.28994141 9.20845703 -0.26738281 8.22941406 -0.24414062 7.22070312 C-0.18539727 4.81222545 -0.10332129 2.40690922 0 0 Z " fill="#FBFBFB" transform="translate(165,164)"/>
<path d="M0 0 C3.64445765 1.7329768 5.60150156 4.22032914 7.4375 7.8125 C8.25793259 12.46161802 8.43672562 16.67411201 5.8828125 20.80859375 C3.47561061 23.77842566 1.69852649 25.81365087 -2.171875 26.23828125 C-7.95507224 26.40476723 -11.55234602 26.11407993 -16 22 C-18.43620302 18.01348596 -18.70881579 13.56408217 -18 9 C-16.74140713 5.67835283 -15.24198348 2.7901129 -12.1640625 0.83203125 C-8.16192204 -0.70669784 -4.20431027 -0.64324621 0 0 Z M-9 8 C-9.44017701 10.36499504 -9.44017701 10.36499504 -9.3125 13 C-9.30863281 13.886875 -9.30476563 14.77375 -9.30078125 15.6875 C-9.21402407 18.19264055 -9.21402407 18.19264055 -7 20 C-4.42459787 19.83492354 -4.42459787 19.83492354 -2 19 C-0.41208685 15.82417369 -0.58980259 12.45838847 -1 9 C-2.2106557 6.94995161 -2.2106557 6.94995161 -4 6 C-6.32357511 5.81509993 -6.32357511 5.81509993 -9 8 Z " fill="#FDFDFD" transform="translate(50,164)"/>
<path d="M0 0 C4.12515131 2.06257565 6.30526469 3.74399052 8 8 C8.57078357 12.5588558 8.55798544 16.68873423 6.75 20.9375 C4.2300113 23.90748668 2.30717968 25.78376014 -1.62109375 26.43359375 C-9.22276029 26.44413698 -9.22276029 26.44413698 -13.0625 24.25 C-17.10793922 19.55207058 -17.42955261 15.7097659 -17.32421875 9.6328125 C-16.88582154 6.07281586 -15.66189672 4.35767995 -13 2 C-8.74347138 -0.83768574 -4.99717834 -0.63727624 0 0 Z M-7.6875 7.625 C-9.37760539 10.68328595 -9.43140878 12.54872979 -9 16 C-7.62073227 18.34261608 -7.62073227 18.34261608 -6 20 C-4.05925139 19.72382467 -4.05925139 19.72382467 -2 19 C0.46324069 15.30513897 0.38991688 13.36706908 0 9 C-1.16884106 6.99515224 -1.16884106 6.99515224 -3 6 C-6.03029124 5.65317916 -6.03029124 5.65317916 -7.6875 7.625 Z " fill="#FDFDFD" transform="translate(77,164)"/>
<path d="M0 0 C0.99 0 1.98 0 3 0 C6.80037051 8.9182028 8.38631306 19.61957431 4.8984375 28.9453125 C3.41628351 31.15665455 2.24231148 32.56997923 0 34 C-3.875 34.5 -3.875 34.5 -7 34 C-6.4225 33.7525 -5.845 33.505 -5.25 33.25 C-0.96829372 30.87127429 1.67005473 27.78041157 3.45703125 23.1796875 C5.54410991 14.80134294 4.1912319 7.40949926 0 0 Z " fill="#6473CB" transform="translate(124,65)"/>
<path d="M0 0 C9.22712934 -0.61514196 9.22712934 -0.61514196 13.0625 2.4375 C13.701875 3.283125 14.34125 4.12875 15 5 C15.33 5.33 15.66 5.66 16 6 C16.04092937 8.33297433 16.04241723 10.66705225 16 13 C15.34 13 14.68 13 14 13 C13.91363281 12.37351562 13.82726562 11.74703125 13.73828125 11.1015625 C13.31502479 8.63968547 12.83291529 6.35633031 12 4 C8.66187407 1.77458271 4.92105017 1.64989782 1 1 C1.06002758 3.44012105 1.14700204 5.87413526 1.25 8.3125 C1.26417969 9.00279297 1.27835937 9.69308594 1.29296875 10.40429688 C1.49857979 14.68433517 1.49857979 14.68433517 4.046875 17.98046875 C5.01367188 18.48513672 5.01367188 18.48513672 6 19 C4.02 19 2.04 19 0 19 C0 12.73 0 6.46 0 0 Z " fill="#EBEBEB" transform="translate(70,19)"/>
<path d="M0 0 C0 0.99 0 1.98 0 3 C-0.66 3.66 -1.32 4.32 -2 5 C-2 5.99 -2 6.98 -2 8 C-0.02 8.66 1.96 9.32 4 10 C2.1875 11.5625 2.1875 11.5625 0 13 C-3 12 -3 12 -5 9 C-4.82531656 5.59367293 -4.22771261 4.25531414 -1.9375 1.6875 C-1.298125 1.130625 -0.65875 0.57375 0 0 Z " fill="#5866CD" transform="translate(99,117)"/>
<path d="M0 0 C10.55808656 -0.3690205 10.55808656 -0.3690205 15 2 C14.67 2.99 14.34 3.98 14 5 C12.989375 4.525625 11.97875 4.05125 10.9375 3.5625 C7.34077795 2.0063672 3.90731291 1.3987054 0 1 C0 0.67 0 0.34 0 0 Z " fill="#5668C8" transform="translate(109,60)"/>
<path d="M0 0 C2.31 0 4.62 0 7 0 C6.01 0.66 5.02 1.32 4 2 C4 2.99 4 3.98 4 5 C3.34 5 2.68 5 2 5 C1.34 3.35 0.68 1.7 0 0 Z " fill="#6975D7" transform="translate(142,177)"/>
<path d="M0 0 C-0.66 1.32 -1.32 2.64 -2 4 C-4.31 4 -6.62 4 -9 4 C-8.1028125 3.566875 -8.1028125 3.566875 -7.1875 3.125 C-1.11111111 0 -1.11111111 0 0 0 Z " fill="#5F7AD7" transform="translate(126,95)"/>
</svg>
